<?xml version="1.0" standalone="no"?>
<!DOCTYPE svg PUBLIC "-//W3C//DTD SVG 20010904//EN"
 "http://www.w3.org/TR/2001/REC-SVG-20010904/DTD/svg10.dtd">
<svg version="1.0" xmlns="http://www.w3.org/2000/svg"
 width="2496.000000pt" height="2496.000000pt" viewBox="0 0 2496.000000 2496.000000"
 preserveAspectRatio="xMidYMid meet">
<metadata>
Created by potrace 1.14, written by Peter Selinger 2001-2017
</metadata>
<g transform="translate(0.000000,2496.000000) scale(0.100000,-0.100000)"
fill="#000000" stroke="none">
<path d="M66 12603 c1 -2661 2 -4843 3 -4849 1 -7 366 -10 1198 -10 l1197 1 1
4830 c0 2657 -1 4838 -3 4848 -4 16 -69 17 -1201 17 l-1196 0 1 -4837z"/>
<path d="M4255 12593 l0 -4848 1805 1 c993 0 1855 3 1915 6 178 11 293 20 410
34 33 4 70 8 82 10 13 1 40 5 60 8 21 4 52 8 68 11 53 7 110 16 125 20 8 3 33
7 55 10 22 4 47 8 55 10 8 2 30 7 48 10 27 4 153 33 217 49 6 2 28 6 50 11 22
4 45 10 50 14 10 5 20 8 60 15 11 2 27 6 35 9 38 15 117 39 140 44 13 2 29 8
35 12 5 5 17 9 25 9 17 1 125 38 143 49 6 4 17 8 22 8 25 2 65 18 65 26 0 5 3
8 8 7 14 -4 109 33 227 88 28 13 52 22 55 22 3 -1 26 10 53 25 26 15 47 23 47
19 0 -4 4 -2 8 3 6 10 42 28 67 35 6 2 27 14 48 27 21 13 48 28 60 33 12 6 29
14 37 19 8 6 60 36 115 67 55 32 101 61 103 66 2 4 8 8 13 8 10 0 86 48 107
67 6 6 21 15 32 18 11 3 20 11 20 16 0 5 6 9 14 9 8 0 16 4 18 8 2 5 25 23 53
42 52 36 67 47 120 93 18 15 37 27 41 27 5 0 15 9 22 20 7 11 16 20 22 20 5 0
20 10 33 23 30 28 65 58 97 80 13 9 21 17 16 17 -5 0 8 13 28 29 20 16 51 43
68 60 18 17 35 31 40 31 4 0 8 6 8 13 1 6 19 26 40 42 21 17 39 33 40 37 0 3
26 33 58 66 32 33 81 86 108 118 27 31 55 63 62 70 6 7 12 16 12 20 0 3 8 14
18 23 10 9 37 41 60 71 23 30 46 60 51 66 4 5 28 39 52 75 24 35 49 70 56 77
7 7 13 17 13 22 0 5 6 15 14 22 14 15 141 223 193 318 34 61 106 202 108 210
1 3 13 30 27 60 14 30 35 75 46 100 64 143 174 445 165 454 -4 3 -2 6 4 6 5 0
10 6 10 13 0 13 29 118 43 157 5 14 12 39 15 55 7 35 9 43 18 70 3 11 9 34 12
50 8 39 13 60 15 60 1 0 3 9 4 20 2 11 6 34 10 50 6 29 11 54 21 105 3 14 7
36 10 49 2 12 7 42 9 65 3 22 8 51 10 62 13 62 29 197 30 246 1 21 3 38 6 38
3 0 6 12 6 28 1 15 5 74 9 132 4 58 9 130 11 160 4 71 4 510 -1 575 -2 28 -6
97 -10 155 -3 58 -8 119 -10 135 -2 17 -6 53 -9 80 -3 28 -8 64 -11 80 -2 17
-7 53 -10 80 -4 28 -13 86 -20 130 -8 44 -17 94 -20 110 -2 17 -7 41 -10 55
-3 14 -8 36 -11 50 -2 14 -7 36 -10 50 -3 14 -8 33 -10 43 -2 9 -6 26 -9 37
-3 11 -7 29 -10 40 -3 11 -7 29 -10 40 -3 11 -7 28 -9 39 -2 10 -14 51 -26 92
-12 41 -23 79 -24 84 -3 15 -36 117 -46 140 -5 11 -22 60 -39 108 -33 92 -86
224 -127 315 -13 29 -24 57 -24 62 0 6 -5 10 -10 10 -6 0 -9 3 -8 8 9 30 -310
581 -372 642 -3 3 -11 17 -19 33 -8 15 -18 27 -23 27 -4 0 -8 5 -8 10 0 11 -9
23 -40 58 -9 9 -29 35 -45 57 -16 22 -34 45 -40 51 -5 6 -28 33 -50 59 -133
161 -490 516 -537 534 -5 1 -19 13 -32 25 -35 33 -88 76 -93 76 -2 0 -10 6
-17 13 -15 14 -33 28 -131 97 -38 27 -75 54 -82 60 -7 5 -14 10 -17 10 -9 0
-101 64 -104 72 -2 4 -12 8 -23 8 -11 0 -22 7 -25 15 -4 8 -10 15 -15 15 -4 0
-30 13 -57 29 -102 60 -152 87 -287 153 -77 38 -148 74 -157 79 -10 5 -25 9
-33 9 -8 0 -15 5 -15 10 0 6 -7 10 -15 10 -8 0 -23 4 -33 10 -14 8 -58 27 -82
35 -3 1 -16 6 -30 12 -14 6 -28 11 -33 12 -4 0 -20 7 -35 14 -15 8 -99 38
-187 67 -88 29 -167 55 -175 58 -14 5 -30 9 -55 15 -5 1 -16 6 -22 10 -7 5
-13 6 -13 3 0 -3 -11 -1 -25 4 -14 5 -37 12 -50 15 -14 3 -36 7 -50 10 -13 3
-36 10 -50 15 -14 5 -25 7 -25 4 0 -2 -8 0 -17 5 -18 9 -57 17 -128 27 -22 3
-44 9 -50 13 -5 4 -23 8 -40 10 -32 2 -70 8 -70 11 0 2 -32 7 -72 11 -18 2
-33 6 -33 9 0 3 -22 6 -49 8 -28 2 -60 5 -73 8 -13 3 -39 7 -58 9 -19 2 -54 6
-77 9 -79 11 -117 15 -203 21 -47 4 -103 9 -125 12 -22 3 -895 8 -1940 10
l-1900 4 0 -4848z m3795 2623 c30 -3 73 -8 95 -10 22 -2 63 -7 90 -12 28 -4
59 -8 70 -9 11 -1 31 -5 45 -8 14 -4 39 -9 55 -11 17 -3 41 -7 55 -10 64 -14
126 -29 140 -34 20 -7 31 -10 55 -15 11 -3 40 -12 65 -21 25 -9 54 -19 65 -21
57 -13 345 -144 345 -157 0 -4 7 -8 15 -8 9 0 28 -8 43 -18 60 -41 137 -89
145 -90 5 0 16 -9 25 -19 9 -10 33 -29 52 -43 105 -74 299 -272 401 -410 101
-136 100 -135 180 -277 12 -21 24 -42 27 -48 4 -5 7 -16 8 -23 2 -8 10 -22 18
-31 9 -10 16 -25 16 -34 0 -8 7 -23 16 -31 8 -9 13 -16 9 -16 -3 0 0 -12 8
-27 17 -32 39 -83 43 -98 1 -5 9 -27 18 -47 23 -54 47 -142 71 -263 2 -11 4
-20 5 -20 1 0 3 -9 5 -20 2 -11 7 -40 11 -65 5 -25 8 -60 9 -77 0 -18 3 -33 7
-33 4 0 7 -8 6 -17 0 -10 3 -40 7 -68 23 -165 39 -621 22 -632 -4 -2 -4 -10 0
-16 10 -16 13 -38 5 -33 -4 2 -7 -24 -8 -57 -1 -63 -11 -212 -14 -212 -1 0 -3
-11 -4 -25 -3 -27 -19 -142 -21 -150 -1 -3 -5 -25 -9 -50 -12 -65 -12 -65 -40
-182 -14 -59 -32 -123 -40 -143 -8 -19 -13 -35 -11 -35 5 0 -49 -146 -86 -235
-50 -118 -54 -125 -61 -125 -5 0 -8 -9 -8 -20 0 -11 -5 -20 -12 -20 -6 0 -8
-3 -5 -6 4 -4 -1 -19 -11 -33 -28 -42 -40 -64 -58 -98 -9 -18 -22 -37 -30 -44
-8 -6 -14 -15 -14 -20 0 -11 -104 -153 -132 -181 -10 -10 -15 -18 -12 -18 13
0 -191 -205 -256 -257 -19 -15 -45 -38 -57 -50 -13 -12 -23 -19 -23 -15 0 4
-6 0 -13 -8 -24 -29 -267 -186 -267 -172 0 4 -4 2 -8 -4 -17 -25 -355 -174
-395 -174 -10 0 -17 -5 -17 -12 0 -6 -3 -9 -6 -5 -3 3 -18 1 -33 -5 -14 -5
-33 -11 -41 -13 -8 -2 -35 -8 -60 -15 -25 -7 -53 -14 -62 -16 -10 -2 -26 -6
-35 -8 -96 -23 -205 -42 -288 -52 -33 -3 -62 -8 -65 -9 -22 -13 -308 -20 -845
-20 l-630 0 0 2638 0 2638 685 -4 c377 -2 710 -7 740 -11z"/>
<path d="M14147 17433 c-2 -5 -3 -2186 -3 -4848 l1 -4840 1200 0 1199 0 0
2642 c0 1454 3 2639 7 2635 4 -4 19 -29 34 -57 15 -27 36 -62 46 -77 11 -14
19 -28 19 -31 0 -3 23 -42 50 -87 28 -45 50 -86 50 -91 0 -5 3 -9 8 -9 4 0 15
-18 25 -40 9 -22 21 -40 27 -40 5 0 9 -3 8 -7 -3 -10 61 -121 73 -129 5 -3 7
-10 4 -15 -4 -5 -1 -9 4 -9 6 0 11 -7 11 -15 0 -8 5 -15 10 -15 6 0 10 -4 10
-10 0 -5 41 -78 90 -161 50 -82 90 -154 90 -160 0 -5 4 -9 9 -9 5 0 15 -16 22
-35 7 -19 17 -35 21 -35 4 0 8 -7 8 -15 0 -8 4 -15 9 -15 5 0 11 -8 14 -17 6
-19 19 -42 120 -208 33 -55 68 -113 77 -130 9 -16 32 -55 50 -85 18 -30 41
-68 50 -85 24 -41 228 -386 240 -405 17 -27 62 -104 87 -150 14 -25 32 -52 39
-61 8 -8 14 -19 14 -23 0 -3 18 -35 40 -70 22 -35 40 -68 40 -75 0 -6 5 -11
10 -11 6 0 10 -7 10 -15 0 -8 5 -15 11 -15 5 0 8 -4 5 -9 -3 -5 1 -14 9 -21 8
-7 15 -19 15 -26 0 -8 5 -14 10 -14 6 0 10 -5 10 -10 0 -6 40 -77 89 -158 49
-81 98 -163 108 -182 47 -82 68 -115 76 -121 5 -3 7 -8 6 -10 -2 -2 4 -15 12
-29 9 -14 23 -37 32 -52 l17 -27 1176 0 c647 0 1182 3 1190 6 8 3 14 9 14 15
0 5 14 29 30 54 17 24 27 44 23 44 -4 0 -3 4 3 8 9 6 46 66 102 167 9 17 20
32 25 33 4 2 7 8 7 13 0 5 16 33 35 63 19 30 35 58 35 61 0 4 14 26 30 51 17
24 27 44 23 44 -4 0 -3 4 3 8 6 4 26 34 45 67 45 79 166 283 194 326 12 19 64
111 84 148 8 14 17 28 20 31 4 3 12 16 19 30 6 14 16 32 22 40 19 28 140 232
140 236 0 2 29 51 65 109 36 59 65 111 65 116 0 5 3 9 8 9 4 0 13 15 21 33 8
17 17 34 20 37 10 8 42 64 48 83 3 9 9 17 14 17 5 0 9 5 9 11 0 7 18 40 40 75
22 35 40 68 40 74 0 5 4 10 9 10 5 0 17 17 26 37 10 20 42 77 71 125 30 49 54
93 54 98 0 6 4 10 9 10 5 0 11 8 14 18 7 21 37 71 55 90 6 7 12 18 12 23 0 7
24 50 77 134 7 11 22 38 34 60 12 22 25 42 28 45 4 3 18 26 31 53 14 26 28 47
32 47 5 0 8 6 8 13 0 6 18 40 40 75 22 34 40 67 40 72 0 6 4 10 8 10 4 0 13
12 20 28 6 15 23 45 37 67 14 22 31 52 38 68 6 15 16 27 22 27 7 0 10 -320 10
-1000 0 -660 -3 -1000 -10 -1000 -7 0 -7 -3 0 -8 6 -4 10 -95 10 -237 0 -142
-4 -233 -10 -237 -7 -5 -7 -8 0 -8 7 0 10 -351 10 -1032 0 -677 -3 -1036 -10
-1040 -7 -5 -7 -8 0 -8 6 0 10 -85 10 -235 0 -150 -4 -235 -10 -235 -7 0 -7
-3 0 -8 6 -4 10 -64 10 -142 l0 -135 1180 0 1180 0 3 4848 2 4847 -1186 -2
-1185 -3 -28 -50 c-16 -27 -62 -110 -105 -183 -42 -73 -76 -137 -76 -142 0 -6
-3 -10 -8 -10 -4 0 -13 -15 -21 -32 -8 -18 -17 -35 -20 -38 -3 -3 -14 -21 -25
-40 -30 -56 -65 -119 -121 -215 -29 -49 -64 -110 -77 -135 -14 -25 -35 -62
-47 -82 -55 -98 -65 -116 -84 -153 -12 -22 -23 -42 -26 -45 -9 -7 -29 -41 -45
-75 -8 -16 -29 -52 -45 -80 -17 -27 -39 -66 -49 -85 -10 -19 -32 -57 -48 -85
-16 -27 -36 -63 -44 -80 -8 -16 -18 -32 -21 -35 -5 -5 -49 -83 -86 -152 -8
-15 -18 -30 -24 -33 -5 -4 -9 -15 -9 -26 0 -10 -3 -19 -7 -19 -5 0 -21 -26
-38 -58 -16 -31 -32 -59 -36 -62 -3 -3 -13 -21 -22 -40 -20 -39 -61 -112 -85
-150 -9 -14 -15 -27 -13 -29 1 -2 -1 -7 -6 -10 -12 -8 -113 -188 -113 -201 0
-5 -4 -10 -10 -10 -5 0 -10 -4 -10 -9 0 -5 -28 -57 -63 -117 -34 -60 -73 -130
-87 -156 -14 -27 -28 -48 -32 -48 -5 0 -8 -5 -8 -10 0 -6 -30 -64 -67 -128
-61 -107 -75 -133 -115 -203 -7 -13 -15 -26 -18 -29 -3 -3 -18 -30 -34 -60
-35 -68 -52 -96 -76 -135 -11 -16 -29 -48 -40 -70 -19 -37 -45 -83 -91 -160
-10 -16 -28 -50 -41 -75 -13 -25 -26 -47 -29 -50 -3 -3 -20 -32 -38 -65 -18
-33 -51 -90 -72 -127 -21 -36 -39 -71 -39 -77 0 -6 -4 -11 -9 -11 -5 0 -14
-12 -20 -27 -11 -28 -18 -41 -54 -95 -10 -16 -15 -28 -10 -28 4 0 4 -4 -2 -8
-11 -8 -9 -4 -106 -177 -38 -66 -73 -125 -79 -132 -5 -7 -10 -19 -10 -27 0 -8
-4 -17 -9 -20 -5 -4 -47 -72 -92 -154 -46 -81 -92 -160 -102 -177 -9 -16 -20
-38 -23 -47 -4 -10 -11 -18 -16 -18 -5 0 -6 -4 -3 -10 3 -5 3 -10 -2 -10 -4 0
-14 -15 -22 -32 -8 -18 -17 -35 -21 -38 -3 -3 -14 -21 -24 -40 -10 -19 -28
-53 -42 -75 -13 -22 -27 -47 -31 -55 -4 -8 -20 -37 -36 -65 -17 -27 -46 -79
-65 -114 -59 -109 -60 -109 -95 -43 -17 31 -34 58 -38 60 -5 2 -9 8 -9 14 0 6
-28 58 -61 117 -34 58 -75 131 -92 161 -17 30 -41 72 -54 93 -13 20 -20 37
-16 37 5 0 3 4 -3 8 -11 7 -26 32 -77 127 -12 22 -24 42 -27 45 -3 3 -15 23
-27 45 -29 55 -54 99 -95 170 -20 33 -47 80 -60 105 -14 25 -35 62 -47 83 -57
100 -62 109 -147 257 -27 47 -56 99 -64 115 -8 17 -19 37 -26 45 -7 8 -27 44
-46 80 -19 36 -47 84 -62 108 -15 24 -31 53 -37 65 -5 12 -23 45 -39 72 -17
28 -35 59 -40 70 -6 11 -19 34 -29 50 -11 17 -30 50 -42 75 -13 25 -25 47 -28
50 -3 3 -14 21 -25 40 -10 19 -28 51 -39 70 -11 19 -31 55 -45 80 -14 25 -33
59 -43 75 -10 17 -30 53 -44 80 -15 28 -33 57 -39 65 -7 8 -25 40 -40 70 -16
30 -35 62 -42 70 -7 8 -12 17 -11 20 0 3 -19 39 -43 80 -23 41 -50 89 -59 105
-9 17 -19 32 -23 33 -5 2 -8 8 -8 14 0 6 -15 36 -34 67 -18 31 -45 76 -58 101
-14 25 -48 85 -77 134 -28 49 -51 93 -51 97 0 5 -4 9 -10 9 -5 0 -10 5 -10 11
0 6 -22 49 -50 96 -27 47 -50 87 -50 89 0 2 -19 36 -43 76 -24 40 -46 80 -50
88 -4 8 -18 33 -32 55 -14 22 -28 47 -32 55 -4 8 -39 71 -78 140 -40 69 -84
145 -97 170 -14 25 -42 74 -63 110 -21 36 -49 85 -63 110 -14 25 -36 63 -49
85 -13 22 -26 48 -30 58 -3 9 -9 17 -14 17 -5 0 -9 5 -9 11 0 5 -27 57 -60
114 -33 57 -60 109 -60 114 0 6 -3 11 -7 11 -5 0 -13 10 -19 23 -26 53 -78
143 -87 148 -5 3 -7 8 -6 10 2 2 -27 57 -64 121 -37 65 -67 122 -67 128 0 5
-4 10 -9 10 -5 0 -14 14 -21 31 -7 17 -24 46 -36 65 -13 19 -21 34 -17 34 3 0
-2 9 -12 20 -18 20 -31 20 -1196 20 -648 0 -1180 -3 -1182 -7z"/>
</g>
</svg>
