<svg xmlns="http://www.w3.org/2000/svg" xml:space="preserve" width="512" height="512" viewBox="0 0 512 512"><path fill="#ffffff50" d="M207 512A141 141 0 0 1 66 369.5a138.6 138.6 0 0 1-36-34.8c-14.3.3-18.6-20.4-5.6-26.2 4-14 16.3-20.2 36-22.5l-15-49C41 223.5 60 213.1 69 224.3l20.5 24.2L73.9 86a25.9 25.9 0 0 1 20.6-27.8l68.2-14C182-8.4 255-16.4 280 33c9.5 18.2 6.2 42.2 3.2 60.8l37.4 6.7 22-46.3c2.7-5.8 9.3-8.9 15.5-7.3a13.6 13.6 0 0 1 10.3 13.7l-2 53.7 33 9.7c11.8 3 13.2 20.4 2.1 25.2l-18.4 50a14 14 0 0 1-5.6 15.3l-2 5.2c30.7 12.8 59.7 37 85.4 60.5 8.6 3.2 32.6 3.2 34.1 15.8a13.6 13.6 0 0 1-4.6 13.6l-48.5 40a13.6 13.6 0 0 1-14.5 1.8l-72.2-34.4c3.1 10.7 5.2 21.3 8.6 31.1 6.5 9.6 25.6 26.6 10.7 37.6-7.6 6.4-18.7-.5-27.2-1a139.3 139.3 0 0 1-.5 4.3c92.8 63.2 35.5 103.3-41.2 82.9A140.9 140.9 0 0 1 207 512z" /><path fill="#ffc15c" d="M329.6 116.1 356 60.5l-2.3 64.3 43.2 12.7-34.7 14.1 9 52-40.6-52.2-52.7 32.3 29.8-45.4-32-31.8zM77.7 292.6l-17.8-59 41.5 49.2 40.4-19.7-16 33.8 41.5 32.4-65.1-11.3-17.3 59.3-8.5-53.5-45-2.1z" /><path fill="#2f2444" d="m91.2 301.5 4.4.6-4.6.3.2-1z" /><path fill="#fe8165" d="M335.6 371.7c1.2 68.6-59 128.6-127.4 127.3-98.3 2.8-162-115.4-107-196 64.1-105.4 236.9-56.7 234.4 68.7z" /><path fill="#2f2444" d="m333.3 395.9-.5 2.3c29.5 19.7 47.4 37.7 47.4 49.6 0 1.4-.2 2.7-.7 4-5 12-34.2 12.7-75.6 3.9a656 656 0 0 1-109.3-35.3 608.2 608.2 0 0 1-113.1-59.7l-2.2-1.5C51.2 339.1 37.4 322 41.5 312c2.6-6.4 12.7-9.7 28.8-9.7 8.3 0 18.3.9 29.6 2.7v-.1l1.1-1.8.2-.2-5.6-.8-4.4-.6c-29.5-3.7-47.7-.3-51.8 9.6-4.6 11.1 9.1 28.8 38.6 50a108.8 108.8 0 0 0 3.3 2.2c28.8 20.1 68.6 41 112.4 59.2 40 16.5 77.6 28.4 108.5 35 18.9 4.1 35.2 6.2 48.2 6.2 8.5 0 15.5-.9 20.7-2.7 5.3-1.8 8.9-4.6 10.5-8.4 5.2-12.8-13.7-33.8-48.3-56.7z" /><g style="opacity:.33"><path fill="#2f2444" d="M335.6 371.7c0 5.9-.4 11.7-1.2 17.4l-37.6-6.3a32 32 0 0 1-21.3-13.6l-35.1-51.7-66.8-20.8-71.6 5a127.3 127.3 0 0 1 233.6 70z" /></g><path fill="#d2d0ff" d="m207 275.1-54.4 6.4-18.5 2.2-1.3.2-12.4 1.5c-6.9.8-13-4.2-13.7-11.1l-18-189c-.5-6.3 3.7-12 9.8-13.2l16.2-3.3 1.2-.3 29.4-6 42.8-8.8 19 221.4z" /><path fill="#2f2444" d="m207 275.1-54.4 6.4c-4.3-68.7-7.4-137.6-7.2-206.4l-.1-12.6 42.8-8.8 19 221.4z" /><path fill="#d2d0ff" d="m343 296-8.4-4 16.7 62 16 20.9-73-13.6-46.3-64s-36 7.6-63.4-13.2c-27.4-20.8-16.4-67-16.4-67-17-12.7-20.4-30-17.3-72.6 3.2-42.5 13-37.7 13-37.7-4.2-16.8 10.6-19 10.6-19l85.8 20.8 38 105.9 33.2.3s23 10.1 43.7 19.6l1.2.5 7.9 3.7.4.1.8.4a87.5 87.5 0 0 1 10 5.9 388.8 388.8 0 0 1 35 26.6l10.5 9 .9.8a1244.1 1244.1 0 0 1 5.7 5l7 6.1.4.4.6.2 27.4 6.5-48.5 40-84-40-1.1-.6-4.9-2.3-1.4-.7z" /><path fill="#d2d0ff" d="M273.4 71.3c-1.3 23.4-4.7 34.3-15.1 39.5-1.7.8-4.1 1.4-7.2 1.7-9.2 1-24-.2-38.5-3.5l-3.9-1c-14.2-3.6-27.6-9.3-34.5-17.3 0 0-9.2-14.3 1.7-39.3 8.4-19.3 20-30 33.6-34.6a34.6 34.6 0 0 1 2.7-.8h.2a46.9 46.9 0 0 1 14.1-2.2c8.5 0 16.5 2.2 23.4 6a32.7 32.7 0 0 1 1.8 1 46 46 0 0 1 22.1 39c0 3 .1 8.7-.4 11.5z" /><path fill="#2f2444" d="M273.4 71.3c-1.3 23.4-4.7 34.3-15.1 39.5-1.7.8-4.1 1.4-7.2 1.7a75.7 75.7 0 0 1-26-8 48.6 48.6 0 0 1-5.2-3.3c-5.3-3.7-9.7-8.6-10.7-14.8-.5-3 0-6.3.7-9.4a55.7 55.7 0 0 1 18.8-31.5 46 46 0 0 1 38.5-9.4l.5 1a44.7 44.7 0 0 1 6.1 22.7c0 3 .1 8.7-.4 11.5zM212.6 109l-3.9-1c-6.4-4-11-8.8-13.7-14.1-2.2-4.2-3-8.7-3.2-13v-1.2h1.2V81c.2 4 1 8.3 3.1 12.3a37.5 37.5 0 0 0 14.3 14.4l2.2 1.3zm39-88.2-2.4.3a67.7 67.7 0 0 0-42.6 24l-.7 1a7.1 7.1 0 0 0-1-.8l.8-1A69.2 69.2 0 0 1 249 20l.9-.1 1.8 1z" /><path fill="#2f2444" d="M206.6 45.1a9.5 9.5 0 0 0-1-.7 10.4 10.4 0 0 0-1.9-1.1 12 12 0 0 0-7.7-.5 9.1 9.1 0 0 0-1.3.4 16.3 16.3 0 0 0-3.1 1.4c-4 2.3-7.5 6.3-9.5 11.2-4.4 10.1-1.7 21 6 24.3 1.1.5 2.4.8 3.7.9h1.2c2.4 0 4.8-.8 7.2-2.2 4-2.4 7.4-6.3 9.5-11.2 3.7-8.7 2.3-18-3-22.5zm2 22c-2 4.6-5.2 8.4-9 10.7-2.2 1.2-4.5 1.9-6.6 2h-1.3a9.7 9.7 0 0 1-3.2-.9c-7-3-9.3-13.1-5.3-22.6 2-4.7 5.2-8.5 9-10.7 2.3-1.3 4.6-2 7-2 1.4 0 2.7.3 4 .8a9.7 9.7 0 0 1 1.7 1l1 .7a15 15 0 0 1 4.7 11.7c0 3-.7 6.2-2 9.3z" /><path fill="#2f2444" d="M212.2 16c-8 7-13.8 16.4-16.2 26.8l-.2.9-1.2-.3v-.2c2.2-10 7.5-19.3 14.9-26.4a34.6 34.6 0 0 1 2.7-.8z" /><g style="opacity:.27"><path fill="#fff" d="M256.4 84.8A33.7 33.7 0 0 1 243.2 99a31.2 31.2 0 0 1-11 2.9c-4 .4-8 .4-11.9-.5l-.4-.1c-5.3-3.8-9.7-8.7-10.7-14.9-.5-3 0-6.3.7-9.4a55.7 55.7 0 0 1 18.8-31.5 46 46 0 0 1 38.5-9.4l.5 1c.8 16.5-3.1 33.3-11.3 47.7z" /></g><path fill="#ffe0e0" d="M262.8 48.6c-4 5-4.6 12-2.6 18 .5 1.5 1.2 3 2.6 3.5 1.1.4 2.4 0 3.4-.6 1-.7 1.7-1.8 2.3-2.8 2.2-3.9 3.3-8.3 3.2-12.7 0-3 0-6.4-3-7.7-2.5-1-4.5.4-6 2.3zM258 74.1c-.8 1-1.3 2.3-1.3 3.6.1 1.3.7 2.6 1.8 3.4a3 3 0 0 0 2.2.6c2.8-.4 4-4.7 3.4-7.1-.8-3-4.4-2.4-6-.5z" /><path fill="#2f2444" d="M243.5 113.3c-49.7 0-71-23.9-71.3-24.1a.6.6 0 1 1 1-.8c.1.2 23.3 26 77.8 23.5.4 0 .7.2.7.6s-.3.6-.6.6l-7.6.2z" /><path fill="#2f2444" d="M236.2 127.5c-7.1 0-16-.8-27.6-2.6-38.1-6-45-17.4-45.3-17.8a.6.6 0 0 1 1-.7c.1.1 7.1 11.3 44.5 17.3 39 6.2 48-.3 54.6-5a.6.6 0 1 1 .7 1c-4.8 3.5-10.8 7.8-28 7.8z" /><path fill="#d2d0ff" d="M209.5 139.6v35l22.7-6s35.7-22.3 38.2-20.6c2.6 1.7-6.5 14.5-6.5 14.5s29.2-7.1 31.3-4.6c2.1 2.5-18 14.3-18 14.3s18.2-8.2 22-4.7c3.8 3.6-17 17.9-17 17.9s17.2-7.1 19.5-4.8c2.3 2.3-16.1 16.1-16.1 16.1s9-5.3 11-2.4c2.1 3-34 29.2-59 34.7-25 5.5-72.2 3.9-82.5-27.8-10.3-31.8 4.6-57.4 4.6-57.4l49.6-5" /><path fill="#2f2444" d="m300.9 217 30.2-75 60.2-.6-27 73.4z" /><path fill="#2f2444" d="m308.1 210-7.2 7-31.8-2.2 4-2.6 30.5-1.8z" /><path fill="#ffe0e0" d="M358.7 180.3c-1 5.5-4.4 9.4-7.6 8.9-3.2-.6-5-5.5-4-11s4.4-9.5 7.6-9c3.2.6 5 5.6 4 11z" /><path fill="#2f2444" d="M211.4 175.7a.6.6 0 0 1-.6-.6l1-35a.6.6 0 0 1 .6-.6c.3 0 .6.3.6.7l-1 35a.6.6 0 0 1-.6.5zm41.6 47.7a.6.6 0 0 1-.4-.1c-19.3-17.5-21.3-53.2-21.3-53.5a.6.6 0 1 1 1.2 0c0 .3 2 35.5 21 52.5a.6.6 0 0 1-.5 1.1z" /><path fill="#2f2444" d="M215.7 231.8c-17 0-35.6-3.7-47.8-12.7a.6.6 0 1 1 .7-1c20.9 15.4 62.4 14.8 79 6.9 19.6-9.3 48.9-27.3 49-30.1-.8-1.4-7.4.7-13 3.5a.6.6 0 0 1-.7-1.1c7-4.8 18.3-13.3 18.5-16v-.3c-2-1.8-12.7 2.1-19 5a.6.6 0 0 1-.6-1.1c6.9-5 17.6-13.8 17.4-16.4 0-.2 0-.3-.3-.4-3.5-1.7-18.7 4.7-24.2 7.3a.6.6 0 0 1-.6-1.1c7.8-4.7 20.4-13.3 20.8-16.2l-.1-.4c-2.1-2.1-19.1 2-29.3 5a.6.6 0 0 1-.7-.9c3.2-4.4 8-12.1 7.4-14.2l-.3-.3c-2.1-.7-22 11.3-39.7 23a.6.6 0 0 1-.2 0l-29.7 7.7c-.3.1-.6 0-.7-.4s0-.7.4-.8l29.6-7.6c6.4-4.2 37.2-24.3 40.7-23 .5.2.9.5 1 1 .9 2.8-4.2 10.5-6.5 13.9 7-2 26-7.2 28.9-4.3.3.4.5.9.4 1.4-.4 3-8.5 8.8-14.6 12.9 6.4-2.6 15-5.6 18-4.1.6.3.9.7 1 1.3.2 3.1-8.3 10.3-13.9 14.5 5.4-2 13.3-4.7 15.5-2.7.4.3.6.8.5 1.3-.2 2.9-8.5 9.4-14.1 13.5 3.8-1.5 8-2.5 9.1-.6.2.2.2.6.1 1-1.5 4.7-34.1 23.5-49.5 30.8a81.6 81.6 0 0 1-32.5 5.7zm-43.3-66.6c-7.5 0-13.7-7.4-13.7-16.6s6.2-16.5 13.7-16.5 13.8 7.4 13.8 16.5-6.2 16.6-13.8 16.6zm0-31.9c-6.9 0-12.5 6.9-12.5 15.3s5.6 15.4 12.5 15.4S185 157 185 148.6s-5.7-15.3-12.6-15.3zm194.7 242.2a.6.6 0 0 1-.5-.3l-15.8-20.8a.6.6 0 0 1-.1-.2c-.2-.9-23.6-91.5-27.9-101.1-4.3-9.4-60.6-31.8-61.2-32a.6.6 0 0 1 .4-1.2c2.4 1 57.5 22.8 62 32.7 4.3 9.6 26.5 96 27.9 101.2l15.6 20.7a.6.6 0 0 1-.4 1z" /><path fill="#2f2444" d="M248 298a.6.6 0 0 1-.6-.8c.1-.4 13.5-40.6 64.9-52.7a.6.6 0 1 1 .3 1.2 88.9 88.9 0 0 0-62.9 49c8.3-8.5 38.6-37.4 71.6-44.4a.6.6 0 0 1 .3 1.2c-38.2 8.1-72.8 45.9-73.2 46.3a.6.6 0 0 1-.4.2z" /><path fill="#2f2444" d="M248.6 299a.6.6 0 0 1-.4-1c.4-.4 43.2-33.6 77.4-38.8a.6.6 0 0 1 .2 1.2c-34 5.1-76.4 38.2-76.8 38.5a.6.6 0 0 1-.4.1zm71.3 31.3a5.6 5.6 0 0 1-3-.9 5.6 5.6 0 0 1-2.5-3.6l-.7-3.3a5.6 5.6 0 0 1 3.2-6.3l21.5-10a.6.6 0 1 1 .6 1.2l-21.6 10a4.4 4.4 0 0 0-2.5 4.9l.7 3.2a4.4 4.4 0 0 0 2 2.9 4.4 4.4 0 0 0 3.3.5l22.4-5.4a.6.6 0 1 1 .3 1.2l-22.4 5.4a5.7 5.7 0 0 1-1.3.2zm9.3 24.2a5.6 5.6 0 0 1-5.5-4.1 5.6 5.6 0 0 1 3.7-7l19.6-6.6a.6.6 0 0 1 .4 1.2l-19.7 6.6a4.4 4.4 0 0 0-2.8 5.4 4.4 4.4 0 0 0 4.5 3.2l21.9-1.3c.3 0 .6.2.6.6a.6.6 0 0 1-.6.6l-21.8 1.3a5.2 5.2 0 0 1-.3 0zM385.5 239a150 150 0 0 0-41 57.6l-1.4-.7c4.2-23 15.6-44.9 32-61.6l1.3.5a118.6 118.6 0 0 0-31.2 56.7c7.9-18.6 20.8-36 39.1-53l.4.1.8.4zm10 5.9c-4 2.3-7.6 5.4-10.7 8.3-14 13.2-25.8 29-34.3 46.3l-1.1-.6a163.3 163.3 0 0 1 34.5-46.6c3-2.8 6.5-5.8 10.4-8.2l1.2.8zm29.6 51.5a4.7 4.7 0 0 1-2.6-.8l-2-1.3a4.7 4.7 0 0 1-1.5-6.4l10.5-17.1a.6.6 0 1 1 1 .6l-10.4 17.1a3.4 3.4 0 0 0 1 4.7l2.1 1.4a3.5 3.5 0 0 0 4.3-.5l13.8-14a.6.6 0 0 1 .9.9l-13.8 14a4.7 4.7 0 0 1-3.3 1.4zm17 11.7a4.6 4.6 0 0 1-2.8-1 4.7 4.7 0 0 1-1.2-5.9l8.8-16.2a.6.6 0 1 1 1 .6l-8.7 16.2a3.4 3.4 0 0 0 .9 4.3 3.4 3.4 0 0 0 2.6.7 3.4 3.4 0 0 0 2.3-1.3l9.5-13a.6.6 0 0 1 .8-.1.6.6 0 0 1 .2.8l-9.5 13a4.6 4.6 0 0 1-3.2 1.9 4.8 4.8 0 0 1-.6 0zm-308-24.5-1.3.2c-6-35.4-8.5-71.5-11-106.5-2.5-35.6-5-72.3-7.1-108.6l1.2-.3c2 36.5 4.7 73.1 7.2 108.8 2.4 35 5 71 11 106.4z" /></svg>