<svg xmlns="http://www.w3.org/2000/svg" xml:space="preserve" width="512" height="512" viewBox="0 0 512 512"><path fill="#fff" d="m340 130-12-10a52 52 0 0 0 5-18l15-1s-1-16-3-20h-15a52 52 0 0 0-7-13l9-14-15-13-11 12a52 52 0 0 0-16-6l-3-14c-3-1-19 1-19 1l1 14-16 7c-7-5-11-9-12-8-1 2-16 18-14 19l9 7c-3 5-5 10-6 16l-11 1c-3 0 0 22 0 24h12a52 52 0 0 0 9 17l-6 9c2 1 18 16 20 14l6-8a52 52 0 0 0 17 4c0 8 1 13 2 13 2 0 24-1 24-4l-2-13a52 52 0 0 0 15-9l11 8 13-15zm-82-2a37 37 0 1 1 47-57 37 37 0 0 1-47 57z" /><path fill="#241726" d="M279 164c-2 0-2 0-3-13a53 53 0 0 1-15-3 2490 2490 0 0 1-6 7h-2c-2 0-7-3-18-13l-2-1c-1-1-1-1 6-10a53 53 0 0 1-9-16h-9l-3-1v-2c-2-17-2-21-1-23l2-1h10a53 53 0 0 1 5-14 2903 2903 0 0 1-8-7v-1c-1-2 2-6 13-19a94 94 0 0 0 1-1l1-1c1 0 2 0 12 9l14-7V34a1 1 0 0 1 1-1 139 139 0 0 1 19-1c1 0 2 1 4 14a53 53 0 0 1 15 6l10-12a1 1 0 0 1 2 0l15 13c0 1 1 2-9 15a53 53 0 0 1 7 12 231 231 0 0 1 15 1c2 3 3 18 3 20a1 1 0 0 1-1 1l-14 2a53 53 0 0 1-4 15l11 10v2l-13 15a2 2 0 0 1-1 0c-1 0-2 0-11-7a53 53 0 0 1-13 8 2853 2853 0 0 1 0 13c-1 2-5 3-22 4h-2zm-19-19h1a50 50 0 0 0 16 4l1 1 1 12h1c16-1 20-2 21-3l-1-13a1 1 0 0 1 1-1 50 50 0 0 0 14-9 1 1 0 0 1 1 0l11 7 12-13a5453 5453 0 0 0-11-9 1 1 0 0 1-1-2 50 50 0 0 0 5-17l1-1 14-1-2-18h-15a1 1 0 0 1-1 0 50 50 0 0 0-7-14 1 1 0 0 1 0-1l9-13-13-11a8120 8120 0 0 0-12 11 50 50 0 0 0-16-5 1 1 0 0 1-1-1l-3-14h-3l-14 1 1 13a1 1 0 0 1-1 1l-16 7a1 1 0 0 1-1 0l-10-8-1 1a75 75 0 0 0-13 17 4148 4148 0 0 0 9 8l-6 15-1 1-11 1c0 1-1 5 1 21v1h11a1 1 0 0 1 1 0 50 50 0 0 0 9 17v2l-6 8h1c12 11 16 13 17 13l6-8a1 1 0 0 1 1 0zm22-8a38 38 0 0 1-25-8 38 38 0 0 1-5-54c8-9 18-14 30-14a38 38 0 0 1 24 9 38 38 0 0 1-24 67zm0-73a36 36 0 0 0-23 63 36 36 0 0 0 23 8 36 36 0 0 0 22-63 36 36 0 0 0-22-8z" /><circle cx="281.3" cy="99.7" r="20" fill="#fff"  transform="rotate(-50 281 100)"/><path fill="#241726" d="M281 121a21 21 0 0 1-13-5 21 21 0 0 1-8-14 21 21 0 0 1 5-16 21 21 0 0 1 16-7 21 21 0 0 1 17 34 21 21 0 0 1-17 8zm0-40a19 19 0 0 0-14 7 19 19 0 0 0-4 13 19 19 0 0 0 6 13 19 19 0 0 0 12 5 19 19 0 0 0 15-7c6-8 5-20-3-27a19 19 0 0 0-12-4z" /><path fill="#fff" d="m213 155-9-8a39 39 0 0 0 3-13l12-1-2-15h-12a39 39 0 0 0-6-11c5-5 8-9 7-10-1-3-11-10-11-10l-8 10a39 39 0 0 0-12-5l-3-11c-2-1-15 1-15 1l1 11c-4 1-8 2-12 5l-9-7c-1 2-12 14-11 15l7 6a39 39 0 0 0-4 11l-9 1c-2 0 0 17 1 19h9a39 39 0 0 0 7 13c-4 4-6 6-5 7s14 12 15 10l5-6a39 39 0 0 0 12 4l2 9c2 0 18-1 18-3l-1-10a39 39 0 0 0 11-7l9 6 10-11zm-63-2a28 28 0 1 1 36-43 28 28 0 0 1-36 43z" /><path fill="#241726" d="M166 181c-1 0-2 0-3-9a41 41 0 0 1-11-3l-4 5-2 1-14-11-1-1c-1 0-1-1 4-7a40 40 0 0 1-6-12h-7l-3-1v-19a2 2 0 0 1 1-1l8-1a41 41 0 0 1 3-10l-5-5a2 2 0 0 1-1-1l10-14 1-1 1-1 9 6 11-4-1-10a1 1 0 0 1 1-1l12-1h4l3 11a40 40 0 0 1 11 4l7-9a1 1 0 0 1 2 0l11 10c1 1 1 2-6 11a41 41 0 0 1 5 9h6l6 1 2 16a1 1 0 0 1-1 1l-11 1a40 40 0 0 1-3 12 4535 4535 0 0 1 9 9c-2 1-8 10-11 11l-9-5a40 40 0 0 1-10 6l1 9v1c-1 1-4 2-18 3h-1zm-14-15a38 38 0 0 0 12 3l1 1 2 9 16-2-1-9a1 1 0 0 1 1-2 38 38 0 0 0 10-6 1 1 0 0 1 2 0l8 5 8-10-8-7a1 1 0 0 1 0-1 38 38 0 0 0 3-13l1-1 11-1-2-13h-4a182 182 0 0 0-8-1 38 38 0 0 0-6-10 1 1 0 0 1 0-1l7-10-9-8a4453 4453 0 0 0-10 9 38 38 0 0 0-12-5 1 1 0 0 1-1-1l-1-10h-3l-10 1v9a1 1 0 0 1-1 2c-4 1-8 2-11 5h-2l-7-6h-1l-10 13a2846 2846 0 0 0 7 6 38 38 0 0 0-4 12l-1 1h-8c-1 1-1 5 1 16v1l8-1a1 1 0 0 1 1 1 38 38 0 0 0 6 13 1 1 0 0 1 0 1l-4 6v1l13 9 5-5a1 1 0 0 1 1-1zm16-5a29 29 0 0 1-19-7 29 29 0 0 1-4-41 29 29 0 0 1 23-11 29 29 0 0 1 19 7c12 10 14 29 4 41a29 29 0 0 1-23 11zm0-56a27 27 0 0 0-21 9 27 27 0 0 0 4 38 27 27 0 0 0 17 7 27 27 0 0 0 17-48 27 27 0 0 0-17-6z" /><path fill="#fff" d="M180 142a15 15 0 1 1-24-20 15 15 0 0 1 24 20z" /><path fill="#241726" d="M168 148c-4 0-8-1-11-3a16 16 0 0 1-5-12 16 16 0 0 1 3-12 16 16 0 0 1 13-6 16 16 0 0 1 13 27 16 16 0 0 1-13 6zm0-30a14 14 0 0 0-11 5 14 14 0 0 0-3 10 14 14 0 0 0 5 10 14 14 0 0 0 9 3 14 14 0 0 0 9-25 14 14 0 0 0-9-3z" /><path fill="#a5d5c9" d="m240 324 57-2s-2 83 1 88c3 4 59 33 60 36s-165 1-169 0 57-35 57-35l-6-87z" /><path fill="#a5d5c9" d="M105 161s-11 218 0 220c10 2 320 2 326 0s-3-228-11-230c-9-2-330-9-315 10z" /><path fill="#fff" d="M132 189s-8 169 0 170c9 2 263 2 269 0 5-1-2-178-9-179-7-2-272-7-260 9z" /><path fill="#241726" d="m268 362-136-1c-2-1-6-2-4-88a3777 3777 0 0 1 3-86c3-7 55-11 154-11l108 2c1 1 3 1 6 33a1464 1464 0 0 1 2 149c-4 2-120 2-133 2zm17-183c-137 0-151 7-152 9l1 1c-4 63-7 165-1 169a3860 3860 0 0 0 267 0c5-10-3-171-8-177-4-1-52-2-107-2z" /><path fill="#fff" d="m166 349 195 1" /><path fill="#241726" d="m361 351-195-1a1 1 0 0 1 0-2l195 1a1 1 0 0 1 0 2z" /><path fill="#f5d66e" d="M190 344s-6-84-2-85l46-1-1 83c0 5-43 3-43 3z" /><path fill="#668e9d" d="M248 343s-5-103-1-104c4-2 46-2 46-2l-1 103c0 6-44 3-44 3z" /><path fill="#ba8296" d="M309 345s-5-129-2-131c4-2 46-2 46-2l-1 129c0 8-43 4-43 4z" /><path fill="#241726" d="M342 279a1 1 0 0 1-1-1c1-4-1-7-1-7a1 1 0 0 1 2-2c0 1 2 5 1 9a1 1 0 0 1-1 1zm-6 9a1 1 0 0 1-1-1c1-4-1-7-1-7a1 1 0 1 1 2-2c0 1 2 5 1 9a1 1 0 0 1-1 1zm12 4a1 1 0 0 1-1-1c1-4-1-8-1-8a1 1 0 0 1 2-1s2 4 1 9a1 1 0 0 1-1 1zm-18-19a1 1 0 0 1-1-2c1-3-1-7-1-7a1 1 0 0 1 2-1s3 4 1 9a1 1 0 0 1-1 1zm11 30a1 1 0 0 1-1-1c1-4-1-7-1-7a1 1 0 1 1 2-2c0 1 3 5 1 9a1 1 0 0 1-1 1zm-2 16a1 1 0 0 1-1-2c2-3 1-7 1-7a1 1 0 0 1 3-1c0 1 1 5-2 9a1 1 0 0 1-1 1zm-7-12a1 1 0 0 1-1-2c2-3 1-7 1-7a1 1 0 0 1 1-1 1 1 0 0 1 1 1s1 4-1 9a1 1 0 0 1-1 0zm-51-30a1 1 0 0 1-1-2c1-3-1-7-1-7a1 1 0 1 1 2-1s3 4 1 9a1 1 0 0 1-1 1zm-6 9a1 1 0 0 1-1-1c1-4-1-7-1-7a1 1 0 0 1 2-2s3 5 2 9a1 1 0 0 1-2 1zm12 4a1 1 0 0 1-1-2c1-3-1-7-1-7a1 1 0 1 1 2-1s3 4 2 9a1 1 0 0 1-2 1zm-17-19a1 1 0 0 1-1-2c1-4-2-7-2-7a1 1 0 1 1 2-1c1 0 3 4 2 9a1 1 0 0 1-1 1zm11 30a1 1 0 0 1-1-2c1-3-1-7-1-7a1 1 0 1 1 2-1s2 4 1 9a1 1 0 0 1-1 1zm-2 16a1 1 0 0 1-1-2c2-3 1-7 1-7l1-2a1 1 0 0 1 1 1s1 5-1 9l-1 1zm-8-12a1 1 0 0 1-1-2c2-3 1-7 1-7a1 1 0 0 1 1-1 1 1 0 0 1 2 0c0 1 1 5-2 9a1 1 0 0 1-1 1zm-48-19a1 1 0 0 1-1-2c1-3-1-7-1-7a1 1 0 1 1 2-1s3 4 1 9a1 1 0 0 1-1 1zm-6 9a1 1 0 0 1-1-1c1-4-1-8-1-8a1 1 0 0 1 1-1 1 1 0 0 1 1 0s3 4 2 9a1 1 0 0 1-2 1zm12 4a1 1 0 0 1-1-2c1-3-1-7-1-7a1 1 0 1 1 2-1s3 4 2 9a1 1 0 0 1-2 1zm-17-19a1 1 0 0 1-1-2c1-4-2-7-2-7a1 1 0 0 1 2-1s3 4 2 9a1 1 0 0 1-1 1zm11 30a1 1 0 0 1-1-2c1-3-1-7-1-7a1 1 0 0 1 2-1s2 4 1 9a1 1 0 0 1-1 1zm-2 16a1 1 0 0 1-1-2c2-3 1-7 1-7a1 1 0 0 1 2-1s1 5-1 9l-1 1zm-8-12a1 1 0 0 1-1-2c2-3 1-7 1-7a1 1 0 0 1 1-1 1 1 0 0 1 2 0c0 1 1 5-2 9a1 1 0 0 1-1 1zM86 140c-1 0-2 0-4-9l-8-2v-1c0-1 0-2 9-5l4-8h2l1 6 1 2 2 1 6 3-1 2-7 3c-3 8-4 8-5 8zm-9-12 6 1 1 1 2 7a88 88 0 0 0 4-7l6-2-4-2-3-1-1-4-1-3-2 6a1 1 0 0 1-1 0l-7 4zm311-64c-1 0-2 0-4-9l-8-2v-1c0-1 0-2 9-5l4-8h1l2 6 1 2 2 1 6 3-1 2-7 3c-3 8-4 8-5 8zm-9-12 6 1 1 1 2 7a88 88 0 0 0 4-7l6-2-4-1-3-2-1-4a94 94 0 0 0-1-3l-2 6a1 1 0 0 1-1 1l-7 3zm3 406c-1 0-2 0-4-9l-9-2v-1c0-1 1-2 9-5 3-8 4-8 5-8h1l2 6v3h3l5 4v1l-7 3-5 8zm-10-12 7 1 1 1 2 7a89 89 0 0 0 3-7l6-2-3-1-3-2-2-3v-4l-3 6a1 1 0 0 1-1 1l-7 3z" /><path fill="#fff" d="M454 199s-3-16 13-11 11 20 5 15 5-22 17-15c12 8 10 23 1 24s5-17 16-6-13 33-22 25c-10-8-2-20 0-13 2 8-4 15-21 15s-9-26-3-18c6 7-4 16-16 7s1-28 10-23z" /><path fill="#241726" d="M464 235h-1c-6-1-10-3-11-8l-9-4c-5-4-6-9-5-15 2-6 8-11 12-11l2 1c0-3 1-7 3-9 2-3 7-4 12-2l6 3c5-5 11-6 17-3 5 4 8 9 8 14 3 0 6 2 9 4 3 4 4 9 2 14-4 8-13 15-20 15l-6-2a16 16 0 0 1-2-2c-4 3-10 5-17 5zm-9-8c1 2 3 5 8 5h1c8 0 13-2 16-4-3-4-3-8-1-11l3-2c1 0 2 0 3 3 1 4 0 8-2 10l2 2 4 1c6 0 14-6 17-13 2-3 3-7-1-11-2-2-4-3-7-3 0 5-3 9-8 9-3 1-4-1-4-2 0-3 4-9 10-10 0-4-3-9-8-12-4-2-9-2-13 2 4 4 4 8 3 11 0 2-2 3-4 3l-3-1c-3-3-2-8 1-12l-5-3c-5-1-8-1-10 1-3 3-2 9-2 9a1 1 0 0 1-2 1 5 5 0 0 0-3 0c-3 0-8 4-9 9-1 2-2 8 3 12 3 2 5 3 8 3-1-4 0-8 2-10 1-2 2-2 3-2s2 0 3 2c3 3 3 6 2 8-1 3-4 5-7 5zm27-10-1 1v9c2-3 3-5 2-8l-1-2zm-25-3-1 1c-2 2-3 6-2 9 3 0 5-1 6-3s0-4-1-6l-2-1zm39-10c-4 1-8 5-8 7h2c3 0 5-3 6-7zm-23-11c-2 4-2 8 0 9 1 2 3 1 3-1 1-2 0-5-3-8z" /><path fill="#9c6644" d="M170 203s77-72 83-64l30 36s56-51 51-59c-5-7-23-20-21-26 2-5 82-16 83-10 1 5-6 84-11 78l-27-21s-64 83-73 84c-9 2-32-31-32-31s-38 44-47 50-40-29-36-37z" /><path fill="#668e9d" d="M26 194s86-73 130 12c28 55-41 80-8 86 45 8-51 45-85 33-41-15-96-71-37-131z" /><path fill="#fdffff" d="M50 239s25-14 28-18c2-4-6-32-1-30 5 1 17 10 17 19 0 0 19-10 24-5 4 6 20 27 19 44-2 16-47 22-59 29s-28-39-28-39z" /><path fill="#9c6644" d="m34 238 25-11s27 52 24 55-24 14-25 12-28-55-24-56zm455 52s-73-59-116 12c-28 46 18 75-11 79-40 5 49 34 79 33 49-2 103-67 48-124z" /><path fill="#fdffff" d="M414 296s61 10 62 16c1 5-35 35-35 35s22 44 16 45c-7 1-60-12-62-15s33-31 31-34-17-50-12-47z" /><path fill="#668e9d" d="M427 316s28 5 27 7-17 25-20 22c-3-2-11-29-7-29zm-23 56s24-16 29-13c4 2 21 23 19 23-3 1-49-9-48-10z" /><path fill="#f5d66e" d="M412 290s67 14 68 16c0 2 0 9-2 9l-67-15c-1-2-1-9 1-10zm-21 84s70 14 70 16c1 1-2 9-4 9l-67-16c-1-1 0-9 1-9z" /><path fill="#241726" d="M199 480h-5a1 1 0 0 1-1-1 1 1 0 0 1 2-1h4a1 1 0 0 1 0 2zm5 0a1 1 0 0 1-1-2 33 33 0 0 0 5-1 1 1 0 0 1 1 0 1 1 0 0 1-1 2 35 35 0 0 1-4 1zm-14-1a33 33 0 0 1-5-2 1 1 0 0 1 0-1 1 1 0 0 1 1-1 31 31 0 0 0 4 2 1 1 0 0 1 0 2zm22-2a1 1 0 0 1 0-2 46 46 0 0 0 4-2 1 1 0 0 1 1 2 48 48 0 0 1-4 2 1 1 0 0 1-1 0zm-30-2h-1a42 42 0 0 1-3-2l-1-1a1 1 0 0 1 2-2l1 1a40 40 0 0 0 2 2 1 1 0 0 1 0 2zm39-2a1 1 0 0 1-1-2 65 65 0 0 0 3-3 1 1 0 0 1 2 2 68 68 0 0 1-4 3zm-47-4a69 69 0 0 1-4-3 1 1 0 0 1 0-2 1 1 0 0 1 2 0 66 66 0 0 0 3 3 1 1 0 0 1-1 2zm54-2a1 1 0 0 1-1-2 86 86 0 0 0 3-3 1 1 0 1 1 2 1 87 87 0 0 1-3 4h-1zm-60-5h-1a53 53 0 0 1-3-4 1 1 0 0 1 2-1 50 50 0 0 0 3 4 1 1 0 0 1-1 1zm66-2a1 1 0 0 1-1-2 115 115 0 0 0 3-3 1 1 0 0 1 2 0 1 1 0 0 1 0 1 114 114 0 0 1-3 4 1 1 0 0 1-1 0zm-71-5a1 1 0 0 1-1-1 42 42 0 0 1-2-4 1 1 0 1 1 2-1 39 39 0 0 0 2 4 1 1 0 0 1-1 2zm77-2a1 1 0 0 1-1-2 117 117 0 0 0 3-3 1 1 0 1 1 2 1 118 118 0 0 1-3 4h-1zm-80-7a1 1 0 0 1-2-1 34 34 0 0 1 0-4 1 1 0 0 1 0-2 51 51 0 0 0 4-2 1 1 0 1 1 1 2 54 54 0 0 1-3 2l1 4a1 1 0 0 1-1 1zm86 0a1 1 0 0 1-1-2v-1l1 1 1-1v2a1 1 0 0 1-1 1zm-104-1a34 34 0 0 1-1 0 1 1 0 0 1-2-1l2-1h4l1 1a1 1 0 0 1-1 1 35 35 0 0 1-3 0zm-6-1a31 31 0 0 1-5-1 1 1 0 0 1 1-2l4 1a1 1 0 0 1 0 2zm14 0a1 1 0 0 1 0-2 40 40 0 0 0 4-1 1 1 0 1 1 1 2 42 42 0 0 1-5 1zm-23-3a36 36 0 0 1-4-2v-1a1 1 0 1 1 1-2l1 1a33 33 0 0 0 3 2 1 1 0 0 1-1 2zm32-4a1 1 0 0 1-2-1l1-5a1 1 0 1 1 2 0 28 28 0 0 0 0 5 1 1 0 0 1-1 1zm8 0a1 1 0 0 1-1-2 58 58 0 0 0 4-3 1 1 0 0 1 1 2 61 61 0 0 1-4 2v1zm-47-1-1-1a78 78 0 0 1-3-3 1 1 0 1 1 1-1 76 76 0 0 0 4 3 1 1 0 0 1-1 2zm54-5-1-1a1 1 0 0 1 0-1 54 54 0 0 0 3-3 1 1 0 0 1 2 1 58 58 0 0 1-3 3 1 1 0 0 1-1 1zm-61-2h-1a60 60 0 0 1-3-4 1 1 0 1 1 2-1 59 59 0 0 0 3 3 1 1 0 0 1-1 2zm48-1a1 1 0 0 1-2-2 28 28 0 0 1 3-4 1 1 0 1 1 2 1 26 26 0 0 0-2 4l-1 1zm19-4a1 1 0 0 1-1-2l2-4a1 1 0 1 1 3 1l-3 4a1 1 0 0 1-1 1zm-73-2h-1a46 46 0 0 1-2-5 1 1 0 0 1 0-1 1 1 0 0 1 2 0 44 44 0 0 0 2 4 1 1 0 0 1 0 2 1 1 0 0 1-1 0zm58-2a1 1 0 0 1-1-2 26 26 0 0 1 4-3 1 1 0 1 1 1 1 24 24 0 0 0-3 4h-1zm19-4a1 1 0 0 1-1-2l-2-2a1 1 0 0 1 1-2c2 0 3 2 3 4a1 1 0 0 1-1 2zm-11-2a1 1 0 0 1-1-2 23 23 0 0 1 5-2 1 1 0 0 1 1 1 1 1 0 0 1-1 2l-4 1zm-70 0a1 1 0 0 1-1-1 34 34 0 0 1-2-4 1 1 0 1 1 3-1 33 33 0 0 0 1 4 1 1 0 0 1-1 2zm-2-9-1-1a28 28 0 0 1 0-2 26 26 0 0 1 0-3v-1h-4a1 1 0 0 1 0-2h5l1 1-1 1 1 1a23 23 0 0 0 0 3v2a1 1 0 0 1-1 1zm4-8a1 1 0 0 1 0-2 23 23 0 0 0 4-2 1 1 0 1 1 1 2 25 25 0 0 1-4 2 1 1 0 0 1-1 0zm-13 0h-1a24 24 0 0 1-4-2 1 1 0 1 1 1-2 22 22 0 0 0 4 2 1 1 0 0 1 0 2zm10-1a1 1 0 0 1-1-2 22 22 0 0 1 2-4 1 1 0 1 1 2 1 19 19 0 0 0-2 4 1 1 0 0 1-1 1zm11-3a1 1 0 0 1 0-2l3-3a1 1 0 1 1 2 1l-4 3a1 1 0 0 1-1 1zm-29-1h-1a49 49 0 0 1-3-3 1 1 0 0 1 1-2 47 47 0 0 0 4 3v2a1 1 0 0 1-1 0zm23-4a1 1 0 0 1-1-2 18 18 0 0 1 4-3 1 1 0 1 1 1 2 16 16 0 0 0-3 3h-1zm-30-2-1-1a35 35 0 0 1-2-4 1 1 0 0 1 2-1 32 32 0 0 0 2 4 1 1 0 0 1 0 1 1 1 0 0 1-1 1zm42-1a1 1 0 0 1-2-1l-1-1-1 1a1 1 0 0 1-1-1 1 1 0 0 1 1-2c4 0 5 1 5 3a1 1 0 0 1-1 1zm-47-7-1-1a29 29 0 0 1-1-5 1 1 0 0 1 2 0l1 4a1 1 0 0 1-1 2zm-2-9a1 1 0 0 1-1-1 30 30 0 0 1 0-2v-3l2-1a1 1 0 0 1 1 1 30 30 0 0 0 0 3v1a1 1 0 0 1-2 2zm1-10a1 1 0 0 1-1-1 40 40 0 0 1 2-5 1 1 0 1 1 2 1 39 39 0 0 0-2 5 1 1 0 0 1-1 0zm4-8a1 1 0 0 1-2-2 53 53 0 0 1 3-4 1 1 0 0 1 2 1 49 49 0 0 0-2 4 1 1 0 0 1-1 1zm4-8a1 1 0 0 1-1-2l3-4a1 1 0 0 1 2 0v2l-3 3-1 1zm182 101c-1 0-3 0-9-18a1 1 0 0 1 0-1l24-24a1082 1082 0 0 0-31 21c-2 0-11-2-13-5v-2c3-4 43-19 47-19a2 2 0 0 1 1 0 1 1 0 0 1 0 1h1l-2 7c-1 5-15 40-18 40zm-6-18c2 7 4 14 6 16 3-4 13-29 17-40l-23 24zm-20-10 10 4 27-20c-11 4-34 13-37 16z" /><path fill="#241726" d="M249 439h-1l-4-17a1 1 0 0 1 1-2 1 1 0 0 1 1 1l4 16 4-6a1 1 0 0 1 2 2c-1 1-4 6-6 6a2 2 0 0 1-1 0zm197-284a8 8 0 1 1 6-13 8 8 0 0 1 2 5c0 5-3 8-8 8zm0-13c-3 0-5 2-5 5a6 6 0 0 0 5 6v1-1a6 6 0 0 0 6-6 6 6 0 0 0-2-4 6 6 0 0 0-4-1zM180 66h-1a8 8 0 0 1 1-16 8 8 0 0 1 5 2 8 8 0 0 1 2 6c0 4-3 8-7 8zm0-14c-4 0-6 3-6 6a6 6 0 0 0 5 6l1 1v-1a6 6 0 0 0 5-6 6 6 0 0 0-1-4 6 6 0 0 0-4-2zm248 51-2-1a1 1 0 0 1 0-1l3-10c-7-4-7-6-7-6l1-2 8-1c3-8 4-9 5-9h1l6 8a144 144 0 0 1 10 0l1 2s1 2-7 8l3 8-2 2c-3 0-7-2-10-4-3 2-8 6-10 6zm3-10-2 7 7-4a94 94 0 0 1-5-3zm10 3 6 2-1-6a133 133 0 0 1-5 4zm-10-6a91 91 0 0 0 7 5 130 130 0 0 0 7-5 108 108 0 0 0-4-7l-8 1a183 183 0 0 0-2 6zm-6-5 4 4 2-5-6 1zm19-2a112 112 0 0 1 2 6l6-6a43 43 0 0 0-8 0zm-8-8-2 6a157 157 0 0 1 6 0l-4-6z" /></svg>