<svg display='none' xmlns="http://www.w3.org/2000/svg">

  <symbol id="phone" viewBox="0 0 20 20">
    <g clip-path="url(#c)">
      <path stroke="#754E33" stroke-linecap="round" stroke-linejoin="round" stroke-width="2"
        d="M18.3 14.1v2.5a1.7 1.7 0 0 1-1.8 1.7 16.5 16.5 0 0 1-12.2-7.6 16.5 16.5 0 0 1-2.5-7.2 1.7 1.7 0 0 1 1.6-1.8H6A1.7 1.7 0 0 1 7.6 3c.1.8.3 1.6.6 2.3a1.7 1.7 0 0 1-.4 1.8l-1 1c1.1 2.1 2.9 3.9 5 5l1-1a1.7 1.7 0 0 1 1.8-.4c.7.3 1.5.5 2.3.6a1.7 1.7 0 0 1 1.4 1.7Z" />
    </g>
    <defs>
      <clipPath id="c">
        <path fill="#fff" d="M0 0h20v20H0z" />
      </clipPath>
    </defs>
  </symbol>

  <symbol id="email" viewBox="0 0 24 24">
    <path fill="#754E33"
      d="M4 20q-.8 0-1.4-.6T2 18V6q0-.8.6-1.4T4 4h10.1L14 5l.1 1H4l8 5 3.6-2.3.8.6.9.4L12 13 4 8v10h16V9.9l1-.3 1-.6v9q0 .8-.6 1.4T20 20zM4 6v12zm15 2q-1.3 0-2.1-.9T16 5t.9-2.1T19 2t2.1.9T22 5t-.9 2.1T19 8" />
  </symbol>

  <symbol id="checkbox-icon" viewBox="0 0 24 24">
    <path stroke-linecap="round" stroke-miterlimit="10" fill="none" d="M22.9 3.7l-15.2 16.6-6.6-7.1"></path>
  </symbol>

  <symbol id="google-logo" viewBox="0 0 512 512">
    <path fill="#167ee6"
      d="M493 211H284c-9 0-17 8-17 17v67c0 9 8 17 17 17h117c-12 33-36 61-67 79l50 87a251 251 0 0 0 125-253c-1-8-8-14-16-14z" />
    <path fill="#12b347" d="M256 412c-58 0-108-32-135-78l-87 50a256 256 0 0 0 350 94l-50-87c-23 13-50 21-78 21z" />
    <path fill="#0f993e" d="m384 478-50-87c-23 13-50 21-78 21v100c46 0 90-13 128-34z" />
    <path fill="#ffd500" d="M100 256c0-28 8-55 21-78l-87-50a253 253 0 0 0 0 256l87-50c-13-23-21-50-21-78z" />
    <path fill="#ff4b26"
      d="M256 100c38 0 72 14 99 36 7 5 16 5 22-1l48-48c6-6 6-18-1-24a255 255 0 0 0-390 65l87 50c27-46 77-78 135-78z" />
    <path fill="#d93f21" d="M355 136c7 5 16 5 22-1l48-48c6-6 6-18-1-24C379 24 320 0 256 0v100c38 0 72 14 99 36z" />
  </symbol>

  <symbol id="advantages-1" viewBox="0 0 101 100">
    <g clip-path="url(#b)">
      <path fill="#754E33" d="M50.4 100a50 50 0 1 0 0-100 50 50 0 0 0 0 100Z" />
      <path stroke="#fff" stroke-linecap="round" stroke-linejoin="round" stroke-width="3" d="M36.3 23.9a29 29 0 1 1-10 8.7" />
      <path stroke="#fff" stroke-linecap="round" stroke-linejoin="round" stroke-width="2"
        d="m34.9 24.2 2-4.2M34.9 23.9l4 1.6" />
      <path stroke="#fff" stroke-width="3" d="M49.9 72.1a22.6 22.6 0 1 0 0-45.2 22.6 22.6 0 0 0 0 45.2Z" />
      <path fill="#fff"
        d="M49.9 30.5c-.7 0-1.3.5-1.3 1.2v1.7c0 .7.6 1.3 1.3 1.3.7 0 1.3-.6 1.3-1.3v-1.7c0-.7-.6-1.2-1.3-1.2ZM49.9 64.3c-.7 0-1.3.6-1.3 1.3v1.7c0 .7.6 1.2 1.3 1.2.7 0 1.3-.5 1.3-1.2v-1.7c0-.7-.6-1.3-1.3-1.3ZM69 49.5c0-.7-.6-1.3-1.3-1.3H66c-.7 0-1.3.6-1.3 1.3 0 .7.6 1.3 1.3 1.3h1.7c.7 0 1.2-.6 1.2-1.3ZM35 49.5c0-.7-.5-1.3-1.2-1.3h-1.7c-.7 0-1.2.6-1.2 1.3 0 .7.5 1.3 1.2 1.3h1.7c.7 0 1.3-.6 1.3-1.3Z" />
      <path stroke="#fff" stroke-linecap="round" stroke-linejoin="round" stroke-width="3" d="m43.3 49.6 4.7 4.6 9.7-9.5" />
    </g>
    <defs>
      <clipPath id="b">
        <path fill="#fff" d="M0 0h101v100H0z" />
      </clipPath>
    </defs>
  </symbol>

  <symbol id="advantages-2" viewBox="0 0 101 100">
    <path fill="#754E33" d="M50.4 100a50 50 0 1 0 0-100 50 50 0 0 0 0 100Z" />
    <path stroke="#fff" stroke-width="3"
      d="M43.6 75.6a1.8 1.8 0 0 0 2.4-1l1.4-3.4c1.7.3 3.5.2 5.2 0l1.4 3.5a1.8 1.8 0 0 0 2.3 1l6-2.6c.4-.1.8-.5 1-1v-1.3l-1.5-3.4c1.4-1 2.7-2.3 3.7-3.7l3.4 1.4a1.8 1.8 0 0 0 2.4-1l2.4-5.9a1.8 1.8 0 0 0-1-2.3l-2.4-1-39.7-.4-3.4 1.4c-.9.4-1.3 1.4-1 2.3l2.5 6a1.8 1.8 0 0 0 2.3 1l3.5-1.5c1 1.4 2.3 2.6 3.7 3.7l-1.4 3.4c-.2.4-.2 1 0 1.4.1.4.5.8.9 1l6 2.4Z" />
    <path stroke="#fff" stroke-width="3"
      d="M69.5 55.2H33.8a10.8 10.8 0 1 1 .3-21.6h1l.4-1a12.7 12.7 0 0 1 23.3 0l.4 1h1c3.7 0 7 2.3 8.5 5.7l.3.9h1a7.5 7.5 0 0 1-.5 15Z" />
    <path fill="#fff" stroke="#fff" stroke-width=".5"
      d="M50 65.5c6 0 11.4-3.7 13.5-9.3a1.2 1.2 0 1 0-2.2-.8 12 12 0 0 1-22.6 0 1.2 1.2 0 1 0-2.2.8c2.1 5.6 7.5 9.3 13.5 9.3Z" />
  </symbol>

  <symbol id="advantages-3" viewBox="0 0 101 100">
    <g clip-path="url(#a)">
      <path fill="#754E33" d="M50.4 100a50 50 0 1 0 0-100 50 50 0 0 0 0 100Z" />
      <path fill="#fff"
        d="M62 50.4a2 2 0 0 1-1.8-3l1.6-2.8-2.6-1.5a2 2 0 0 1-1-2v-.4l.1-.5v-.4l-.1-.5a2 2 0 0 1 1-2l2.6-1.4-2-3.5-2.6 1.4a2 2 0 0 1-2.2 0c-.6-.5-1-.8-1.6-1a2 2 0 0 1-1.2-1.9v-2.8h-4v2.8a2 2 0 0 1-1.3 2l-1.6.8a2 2 0 0 1-2.1.1l-2.5-1.4-2 3.5 2.5 1.5a2 2 0 0 1 1 2v.3l-.1.5v1a2 2 0 0 1-1 2l-2.5 1.4 1.6 2.8a2 2 0 0 1-3.5 2l-2.6-4.5a2 2 0 0 1 .7-2.8l3.2-1.8-3.2-1.9a2 2 0 0 1-.7-2.8l4-7A2 2 0 0 1 41 28l3.2 1.8V26c0-1 1-2 2-2h8.2c1 0 2 1 2 2v3.7l3.2-1.8a2 2 0 0 1 2.7.7l4 7a2 2 0 0 1-.7 2.8l-3.1 1.8 3.1 1.9a2 2 0 0 1 .8 2.8l-2.6 4.5c-.4.6-1 1-1.8 1Z" />
      <path fill="#fff" d="M49.4 48.4a6.1 6.1 0 1 1 0-12.2 6.1 6.1 0 0 1 0 12.2Zm0-8.1a2 2 0 1 0 0 4 2 2 0 0 0 0-4Z" />
      <path fill="#fff"
        d="M44.2 85a2 2 0 0 1-2-2V65.8l-11-5.6a2 2 0 0 1-1.2-1.8V48.4c0-1.1 1-2 2-2h36.6c1.1 0 2 .9 2 2v10.1a2 2 0 0 1-1.1 1.8l-11 5.6v13a2 2 0 0 1-1.5 1.9l-12.1 4a2 2 0 0 1-.7.1ZM34.1 57.2l11 5.5a2 2 0 0 1 1.1 1.8v15.5l8.2-2.7V64.6a2 2 0 0 1 1.1-1.8l11-5.5v-6.9H34.2v6.9Z" />
    </g>
    <defs>
      <clipPath id="a">
        <path fill="#fff" d="M0 0h101v100H0z" />
      </clipPath>
    </defs>
  </symbol>

  <symbol id="advantages-4" viewBox="0 0 103 100">
    <path fill="#754E33" d="M49.8 100A50 50 0 1 0 49.6.2a50 50 0 0 0 .2 99.8Z" />
    <path fill="#fff"
      d="M51.5 64a2 2 0 0 1-3 0L38 52.3a2 2 0 1 1 3-2.6l7.1 7.8V28a2 2 0 0 1 4 0v29.5l7.2-7.8a2 2 0 0 1 3 2.6L51.4 64Z" />
    <path fill="#fff"
      d="M28 60a2 2 0 0 0-4 0v.1c0 3.7 0 6.6.3 9a10 10 0 0 0 2.6 6 10 10 0 0 0 6 2.6c2.4.3 5.3.3 9 .3H58c3.7 0 6.6 0 9-.3a10 10 0 0 0 6-2.6 10 10 0 0 0 2.6-6c.3-2.4.3-5.3.3-9V60a2 2 0 0 0-4 0c0 3.8 0 6.5-.3 8.5-.2 2-.7 3-1.5 3.7-.7.8-1.7 1.3-3.7 1.5-2 .3-4.7.3-8.5.3H42c-3.8 0-6.5 0-8.5-.3-2-.2-3-.7-3.7-1.5-.8-.7-1.3-1.7-1.5-3.7-.3-2-.3-4.7-.3-8.5Z" />
    <path fill="#fff" fill-rule="evenodd"
      d="M63.2 22.3c-1.3.6-1.6 1.3-1.6 1.7 0 .5.3 1.1 1.6 1.8 1.2.6 3 1 5 1s3.7-.4 4.9-1c1.2-.7 1.6-1.3 1.6-1.8 0-.4-.4-1-1.6-1.7-1.2-.6-3-1-5-1s-3.7.4-4.9 1Zm11.5 5-.7.4c-1.5.8-3.6 1.3-5.9 1.3a13.5 13.5 0 0 1-6.5-1.6v1.4c0 .5.4 1.2 1.6 1.9 1.2.6 3 1 5 1s3.6-.4 4.8-1c1.3-.7 1.7-1.4 1.7-2v-1.3Zm2.2-3.3v13.5c0 1.8-1.3 3-2.8 3.8a13 13 0 0 1-6 1.3 13 13 0 0 1-5.9-1.3c-1.5-.8-2.8-2-2.8-3.8V24c0-1.7 1.3-2.9 2.8-3.6 1.6-.8 3.7-1.3 6-1.3 2.2 0 4.3.5 5.8 1.3 1.5.7 2.9 2 2.9 3.6ZM61.6 36.6v1c0 .4.4 1.1 1.6 1.8 1.2.6 3 1 5 1s3.6-.4 4.8-1c1.3-.7 1.7-1.4 1.7-1.9v-1l-.6.5a13 13 0 0 1-6 1.3 13 13 0 0 1-6.5-1.7Zm12.5-4 .6-.4v1c0 .5-.4 1.2-1.7 1.8-1.2.7-2.9 1-4.9 1-2 0-3.7-.3-4.9-1-1.2-.6-1.6-1.3-1.6-1.8v-1l.6.4a13 13 0 0 0 6 1.3 13 13 0 0 0 5.9-1.3Z"
      clip-rule="evenodd" />
  </symbol>

</svg>