<svg xmlns="http://www.w3.org/2000/svg" width="141" height="61" fill="none" viewBox="0 0 141 61">
  <path fill="#111"
    d="M30.2 3.1c-1 0-22.3 0-25.9 4.8-.4.2-.7.6-.7 1.1 0 .3 0 .6.2.9v9.5c0 6.2 25.3 6.2 26.4 6.2 1 0 26.3 0 26.3-6.2v-10C56.5 3.2 31.2 3 30.2 3Zm0 2.5c13.7 0 22 2.1 23.5 3.5-1 1.4-9.4 3.7-23.7 3.7-13.7 0-22-2.1-23.6-3.5C7.5 7.9 16 5.6 30.2 5.6ZM54 19.3c-.7 1.4-9.1 3.8-23.8 3.8-14.8 0-23.2-2.4-23.9-3.8v-7.2A77.8 77.8 0 0 0 30 15.3c.9 0 17.6 0 24-3.4v7.4Z" />
  <path fill="#111"
    d="M55.2 23.4c-.7 0-1.2.6-1.2 1.3-.7 1.3-9.1 3.7-23.8 3.7C15.4 28.4 7 26 6.3 24.7a1.3 1.3 0 0 0-2.5 0v11C3.8 42 29.1 42 30.2 42c1 0 26.3 0 26.3-6.3v-11c0-.7-.6-1.3-1.3-1.3ZM54 35.7c-.7 1.3-9.1 3.7-23.8 3.7C15.4 39.4 7 37 6.3 35.7v-8c6.5 3.2 23 3.3 23.9 3.3.8 0 17.3 0 23.8-3.3v8Z" />
  <path fill="#111"
    d="M55.2 40c-.7 0-1.2.5-1.2 1.2-.7 1.3-9.1 3.7-23.8 3.7C15.4 45 7 42.5 6.3 41.2a1.3 1.3 0 0 0-2.5 0v11c0 6.2 25.3 6.3 26.4 6.3 1 0 26.3 0 26.3-6.3v-11c0-.7-.6-1.3-1.3-1.3ZM54 52.1c-.7 1.3-9.1 3.8-23.8 3.8C15.4 56 7 53.5 6.3 52.2v-8c6.5 3.2 23 3.3 23.9 3.3.8 0 17.3 0 23.8-3.3v8ZM63.2 0h7.5v30.3h-7.5V0ZM87 30.3H76.3V0h10.6c9.3 0 15.7 6 15.7 15.1 0 9.4-6.7 15.2-15.7 15.2ZM83.7 6.9v16.5H87c5.3 0 8.2-3.3 8.2-8.3 0-1.1-.1-2.1-.4-3.2-1.3-3.6-4.1-5-7.8-5h-3.2Zm31 6.7v16.7h-7.5V0h7.4l9.5 16.7L133.6 0h7.4v30.3h-7.4V13.6l-5.8 9.8h-7.4l-5.8-9.8ZM63.2 35.7h1.9v7.6h-1.9v-7.6Zm5.2 3.4v4.2h-1.9v-7.6h1.9l2.3 4.2 2.4-4.2h1.8v7.6h-1.8V39l-1.4 2.5h-1.9L68.4 39ZM81 41.8h-2.8l-.6 1.5h-2l3-7.6h2l3 7.6h-2l-.6-1.5ZM78.9 40h1.6l-.8-2.2-.8 2.2Zm11.9-1.3v4.2c-1 .3-2 .5-3 .5-2.4 0-4-1.5-4-3.9 0-2.6 2-3.8 4.3-3.8h1.2l1.1.2v2a3.3 3.3 0 0 0-1-.3l-1.3-.1c-1.5 0-2.4.4-2.4 2s.8 2 2.2 2h1v-1.1h-1.6v-1.7h3.5Zm1.1-3h5.7v1.7h-3.8v1.3h3v1.7h-3v1.2h3.8v1.7h-5.7v-7.6Zm12.6 5.8-1-1a1 1 0 0 0-.4.2l-.2.4c0 .4.5.5 1 .5h.6Zm1.4-2.7h1.8c0 .9-.2 1.6-.5 2.4l.4.2.5.1v1.8c-.7 0-1.4-.4-2-.7-.6.5-1.4.8-2.2.8-1.4 0-2.8-.8-2.8-2.3 0-1 .6-1.7 1.4-2.1a3 3 0 0 1-.2-1.1c0-1.6 1.2-2.2 2.6-2.2h1l1 .2v1.8l-.5-.1h-.5l-.5-.1h-.5c-.4 0-.8 0-.8.5 0 .9 1 1.8 1.6 2.3.2-.4.2-1 .2-1.5Zm8.8 4.5H112v-7.6h2.7c2.3 0 3.9 1.5 3.9 3.8s-1.7 3.8-4 3.8Zm-.8-5.9v4.2h.8c1.3 0 2-.9 2-2v-.9c-.4-.9-1.1-1.3-2-1.3h-.8Zm10.5 4.4h-2.8l-.5 1.5h-2l3-7.6h1.9l3 7.6h-2l-.6-1.5Zm-2.2-1.8h1.6l-.8-2.2-.8 2.2Zm4.2-4.3h6.4v1.7h-2.3v5.9h-1.8v-5.9h-2.3v-1.7Zm12 6h-2.8l-.5 1.6h-2l3-7.6h1.9l3 7.6h-2l-.6-1.5Zm-2.2-1.7h1.6l-.8-2.2-.8 2.2ZM66.3 53.8v6.8h-3V48.2h3l3.9 6.8 3.9-6.8h3v12.4h-3v-6.8l-2.4 4h-3l-2.4-4Zm21 4.3h-4.7l-.9 2.5h-3.3l5-12.4h3l5 12.4h-3.3l-.9-2.5Zm-3.7-2.8h2.6L85 51.7l-1.3 3.6Zm17-7.1h3.1v12.4h-3l-5-7.3v7.3h-3V48.2h3l5 7.3v-7.3Zm13.2 9.9h-4.6l-.9 2.5H105l5-12.4h3l5 12.4h-3.3l-.9-2.5Zm-3.6-2.8h2.6l-1.3-3.6-1.3 3.6Zm19.6-2.3v7c-1.5.5-3.3.8-4.8.8-4 0-6.7-2.4-6.7-6.3 0-4.3 3.2-6.4 7.1-6.4h1.9l1.9.4v3.1a5.4 5.4 0 0 0-1.7-.4l-2-.2c-2.6 0-4.1.8-4.1 3.5 0 2.5 1.3 3.3 3.7 3.3h1.6v-2h-2.6V53h5.7Zm2-4.8h9.2V51h-6.2v2h5v2.8h-5v2h6.2v2.8h-9.3V48.2Z" />
</svg>